<svg width="154" height="548" viewBox="0 0 154 548" fill="none" xmlns="http://www.w3.org/2000/svg">
<path fill-rule="evenodd" clip-rule="evenodd" d="M77 546C118.421 546 152 504.139 152 452.5C152 400.861 118.421 359 77 359C35.5786 359 2 400.861 2 452.5C2 504.139 35.5786 546 77 546ZM77 514.833C104.614 514.833 127 486.926 127 452.5C127 418.074 104.614 390.167 77 390.167C49.3858 390.167 27 418.074 27 452.5C27 486.926 49.3858 514.833 77 514.833Z" fill="#825A2C"/>
<path d="M150.5 452.5C150.5 503.636 117.301 544.5 77 544.5V547.5C119.542 547.5 153.5 504.641 153.5 452.5H150.5ZM77 360.5C117.301 360.5 150.5 401.364 150.5 452.5H153.5C153.5 400.359 119.542 357.5 77 357.5V360.5ZM3.5 452.5C3.5 401.364 36.6989 360.5 77 360.5V357.5C34.4584 357.5 0.5 400.359 0.5 452.5H3.5ZM77 544.5C36.6989 544.5 3.5 503.636 3.5 452.5H0.5C0.5 504.641 34.4584 547.5 77 547.5V544.5ZM125.5 452.5C125.5 486.423 103.494 513.333 77 513.333V516.333C105.734 516.333 128.5 487.429 128.5 452.5H125.5ZM77 391.667C103.494 391.667 125.5 418.577 125.5 452.5H128.5C128.5 417.571 105.734 388.667 77 388.667V391.667ZM28.5 452.5C28.5 418.577 50.506 391.667 77 391.667V388.667C48.2655 388.667 25.5 417.571 25.5 452.5H28.5ZM77 513.333C50.506 513.333 28.5 486.423 28.5 452.5H25.5C25.5 487.429 48.2655 516.333 77 516.333V513.333Z" fill="black"/>
<path d="M56.9 2.5H85.8962V261H56.8962L56.9 2.5Z" fill="#825A2C" stroke="black" stroke-width="3"/>
<path d="M96.2658 277.075L62.1325 294.142C53.7533 297.991 43.8322 294.488 39.7269 286.231C35.6217 277.975 38.817 267.95 46.9432 263.592L81.0765 246.526C86.5605 243.585 93.2106 243.862 98.431 247.249C103.651 250.636 106.615 256.595 106.164 262.802C105.714 269.008 101.921 274.478 96.2658 277.075Z" fill="#A0522D" stroke="black" stroke-width="3"/>
<path d="M96.2658 353.529L62.1325 370.595C53.7533 374.444 43.8322 370.941 39.7269 362.685C35.6217 354.428 38.817 344.404 46.9432 340.046L81.0765 322.979C86.5605 320.039 93.2106 320.316 98.431 323.702C103.651 327.089 106.615 333.049 106.164 339.256C105.714 345.462 101.921 350.931 96.2658 353.529Z" fill="#A0522D" stroke="black" stroke-width="3"/>
<path d="M96.2658 315.219L62.1325 332.286C56.6485 335.227 49.9984 334.95 44.778 331.563C39.5576 328.176 36.5944 322.216 37.0449 316.01C37.4955 309.803 41.2883 304.334 46.9432 301.736L81.0765 284.67C86.5605 281.729 93.2106 282.006 98.431 285.393C103.651 288.78 106.615 294.739 106.164 300.946C105.714 307.152 101.921 312.622 96.2658 315.219Z" fill="#825A2C" stroke="black" stroke-width="3"/>
</svg>
