<svg width="309" height="207" viewBox="0 0 309 207" fill="none" xmlns="http://www.w3.org/2000/svg">
<path d="M277.301 31.688H284.08V102.828H277.3L277.301 31.688Z" fill="#825A2C" stroke="black" stroke-width="0.660524"/>
<path d="M286.504 107.252L278.524 111.948C276.566 113.008 274.246 112.044 273.287 109.771C272.327 107.499 273.074 104.74 274.974 103.541L282.953 98.8444C284.235 98.0351 285.789 98.1113 287.01 99.0434C288.23 99.9755 288.923 101.616 288.818 103.324C288.712 105.032 287.826 106.537 286.504 107.252Z" fill="#A0522D" stroke="black" stroke-width="0.660524"/>
<path d="M286.504 128.292L278.524 132.989C276.566 134.048 274.246 133.084 273.287 130.812C272.327 128.539 273.074 125.781 274.974 124.581L282.953 119.885C284.235 119.075 285.789 119.152 287.01 120.084C288.23 121.016 288.923 122.656 288.818 124.364C288.712 126.072 287.826 127.577 286.504 128.292Z" fill="#A0522D" stroke="black" stroke-width="0.660524"/>
<path d="M286.504 117.749L278.524 122.446C277.243 123.255 275.688 123.179 274.468 122.247C273.247 121.315 272.555 119.675 272.66 117.967C272.765 116.259 273.652 114.753 274.974 114.039L282.953 109.342C284.235 108.532 285.789 108.609 287.01 109.541C288.23 110.473 288.923 112.113 288.818 113.821C288.712 115.529 287.826 117.034 286.504 117.749Z" fill="#825A2C" stroke="black" stroke-width="0.660524"/>
<path d="M296.906 179.411C296.964 180.384 296.803 181.357 296.436 182.259C296.276 182.7 296.059 183.119 295.789 183.504C295.429 184.04 294.981 184.51 294.463 184.896C291.493 186.856 288.038 187.954 284.481 188.066C283.349 188.163 282.136 188.212 280.793 188.212C279.45 188.212 278.237 188.163 277.104 188.066C273.548 187.954 270.092 186.856 267.123 184.896C266.605 184.51 266.157 184.04 265.796 183.504C265.527 183.119 265.31 182.7 265.149 182.259C264.782 181.357 264.622 180.384 264.68 179.411C264.821 175.818 265.485 172.265 266.654 168.864C271.272 170.034 276.031 170.557 280.793 170.417C285.555 170.557 290.314 170.034 294.932 168.864C296.1 172.265 296.765 175.818 296.906 179.411Z" fill="#9D27B0"/>
<path d="M294.932 168.864C293.438 169.289 291.917 169.609 290.378 169.821C291.351 172.932 291.914 176.156 292.052 179.411C292.111 180.384 291.95 181.357 291.583 182.259C291.423 182.7 291.205 183.119 290.936 183.504C290.576 184.04 290.127 184.51 289.61 184.896C286.64 186.856 283.185 187.954 279.628 188.066C279.224 188.1 278.793 188.121 278.366 188.144C279.135 188.184 279.931 188.212 280.793 188.212C282.136 188.212 283.349 188.163 284.481 188.066C288.038 187.954 291.493 186.856 294.463 184.896C294.981 184.51 295.429 184.04 295.789 183.504C296.059 183.119 296.276 182.7 296.436 182.259C296.803 181.357 296.964 180.384 296.906 179.411C296.765 175.818 296.1 172.265 294.932 168.864Z" fill="#6A1B9A"/>
<path d="M296.906 179.411C296.964 180.384 296.803 181.357 296.436 182.259C296.276 182.7 296.059 183.119 295.789 183.504C295.429 184.04 294.981 184.51 294.463 184.896C291.493 186.856 288.038 187.954 284.481 188.066C283.349 188.163 282.136 188.212 280.793 188.212C279.45 188.212 278.237 188.163 277.104 188.066C273.548 187.954 270.092 186.856 267.123 184.896C266.605 184.51 266.157 184.04 265.796 183.504C265.527 183.119 265.31 182.7 265.149 182.259C264.782 181.357 264.622 180.384 264.68 179.411C264.821 175.818 265.485 172.265 266.654 168.864C271.272 170.034 276.031 170.557 280.793 170.417C285.555 170.557 290.314 170.034 294.932 168.864C296.1 172.265 296.765 175.818 296.906 179.411Z" stroke="black" stroke-width="0.758317"/>
<path d="M282.411 178.506H279.175C278.282 178.506 277.557 179.23 277.557 180.123C277.557 181.017 278.282 181.741 279.175 181.741H282.411C283.304 181.741 284.028 181.017 284.028 180.123C284.028 179.23 283.304 178.506 282.411 178.506Z" fill="black"/>
<path d="M262.629 179.138C262.571 180.11 262.732 181.083 263.098 181.985C258.278 184.897 255.802 183.587 254.508 181.581C253.189 179.357 253.14 176.603 254.379 174.333C255.773 171.405 257.801 168.825 260.316 166.778C261.662 167.563 263.103 168.172 264.603 168.59C263.435 171.991 262.77 175.545 262.629 179.138Z" fill="#C79F70" stroke="black" stroke-width="0.758317"/>
<path d="M307.181 181.581C305.887 183.587 303.412 184.897 298.591 181.985C298.958 181.083 299.118 180.11 299.06 179.138C298.92 175.545 298.255 171.991 297.087 168.59C298.587 168.172 300.028 167.563 301.374 166.778C303.889 168.825 305.917 171.405 307.311 174.333C308.549 176.603 308.5 179.357 307.181 181.581Z" fill="#DFC49C"/>
<path d="M307.311 174.333C305.917 171.405 303.889 168.825 301.374 166.778C300.356 167.377 299.279 167.868 298.159 168.244C299.915 170.025 301.367 172.082 302.458 174.333C303.696 176.603 303.647 179.357 302.328 181.581C301.946 182.196 301.427 182.715 300.812 183.098C304.201 184.43 306.104 183.252 307.181 181.581C308.5 179.357 308.549 176.603 307.311 174.333Z" fill="#E3BF8A"/>
<path d="M307.181 181.581C305.887 183.587 303.412 184.897 298.591 181.985C298.958 181.083 299.118 180.11 299.06 179.138C298.92 175.545 298.255 171.991 297.087 168.59C298.587 168.172 300.028 167.563 301.374 166.778C303.889 168.825 305.917 171.405 307.311 174.333C308.549 176.603 308.5 179.357 307.181 181.581V181.581Z" stroke="black" stroke-width="0.758317"/>
<path d="M275.97 189.54C275.792 196.351 274.578 200.476 273.365 202.903C272.509 204.694 270.708 205.842 268.722 205.863C268.565 205.866 268.409 205.86 268.253 205.847C265.683 205.513 263.721 203.388 263.594 200.8C263.374 195.503 263.732 190.197 264.661 184.978C265.022 185.513 265.47 185.984 265.988 186.369C268.957 188.33 272.413 189.428 275.97 189.54Z" fill="#C79F70" stroke="black" stroke-width="0.758317"/>
<path d="M298.088 200.8C297.96 203.388 295.998 205.513 293.428 205.847C293.272 205.86 293.116 205.866 292.959 205.863C290.974 205.842 289.173 204.694 288.316 202.903C287.103 200.476 285.89 196.351 285.712 189.54C289.268 189.428 292.724 188.33 295.693 186.369C296.211 185.984 296.66 185.513 297.02 184.978C297.949 190.197 298.307 195.503 298.088 200.8Z" fill="#E3BF8A"/>
<path d="M297.02 184.978C296.66 185.513 296.211 185.984 295.693 186.369C294.746 187.055 293.713 187.613 292.62 188.029C293.246 192.255 293.452 196.533 293.234 200.8C293.116 202.633 292.094 204.288 290.508 205.216C291.257 205.637 292.1 205.86 292.959 205.863C293.116 205.866 293.272 205.86 293.428 205.847C295.998 205.513 297.96 203.388 298.088 200.8C298.307 195.503 297.949 190.197 297.02 184.978Z" fill="#C79F70"/>
<path d="M298.088 200.8C297.96 203.388 295.998 205.513 293.428 205.847C293.272 205.86 293.116 205.866 292.959 205.863C290.974 205.842 289.173 204.694 288.316 202.903C287.103 200.476 285.89 196.351 285.712 189.54C289.268 189.428 292.724 188.33 295.693 186.369C296.211 185.984 296.66 185.513 297.02 184.978C297.949 190.197 298.307 195.503 298.088 200.8V200.8Z" stroke="black" stroke-width="0.758317"/>
<path d="M305.105 149.413C305.105 156.078 305.105 161.967 299.264 165.461C297.919 166.245 296.478 166.854 294.977 167.273C290.359 168.443 285.601 168.966 280.838 168.826C276.076 168.966 271.318 168.443 266.699 167.273C265.199 166.854 263.758 166.245 262.412 165.461C256.572 161.967 256.572 156.078 256.572 149.413C256.572 140.451 264.159 132.912 274.464 130.679C276.559 130.229 278.696 130.001 280.838 130C281.979 129.999 283.119 130.064 284.252 130.194C296.029 131.521 305.105 139.609 305.105 149.413Z" fill="#CEA270"/>
<path d="M284.252 130.194C283.119 130.064 281.979 129.999 280.838 130C280.07 130 279.322 130.066 278.573 130.123C278.848 130.147 279.127 130.162 279.4 130.194C291.176 131.521 300.251 139.609 300.251 149.413C300.251 156.078 300.251 161.967 294.411 165.461C293.065 166.245 291.625 166.854 290.124 167.273C286.3 168.274 282.364 168.785 278.412 168.794C279.195 168.813 279.999 168.826 280.838 168.826C285.601 168.966 290.359 168.443 294.977 167.273C296.478 166.854 297.918 166.245 299.264 165.461C305.104 161.967 305.104 156.078 305.104 149.413C305.104 139.609 296.029 131.521 284.252 130.194Z" fill="#7B613B"/>
<path d="M305.105 149.413C305.105 156.078 305.105 161.967 299.264 165.461C297.919 166.245 296.478 166.854 294.977 167.273C290.359 168.443 285.601 168.966 280.838 168.826C276.076 168.966 271.318 168.443 266.699 167.273C265.199 166.854 263.758 166.245 262.412 165.461C256.572 161.967 256.572 156.078 256.572 149.413C256.572 140.451 264.159 132.912 274.464 130.679C276.559 130.229 278.696 130.001 280.838 130C281.979 129.999 283.119 130.064 284.252 130.194C296.029 131.521 305.105 139.609 305.105 149.413Z" stroke="black" stroke-width="0.758317"/>
<path d="M273.674 147.33L274.716 151.138L266.753 144.395C265.859 144.395 267.702 145.979 267.702 146.873C267.708 147.407 265.416 147.042 265.866 147.33C265.393 148.162 265.141 149.101 265.135 150.058C265.135 153.185 267.67 155.72 270.797 155.72C273.924 155.72 276.459 153.185 276.459 150.058C276.452 149.101 276.201 148.162 275.728 147.33C276.178 147.042 273.674 147.33 273.674 147.33Z" fill="black"/>
<path d="M270.797 154.102C273.031 154.102 274.841 152.291 274.841 150.058C274.841 147.824 273.031 146.013 270.797 146.013C268.563 146.013 266.753 147.824 266.753 150.058C266.753 152.291 268.563 154.102 270.797 154.102Z" fill="#CEA270"/>
<path d="M262.962 150.285H278.603V143.081H262.962V150.285Z" fill="#CEA270"/>
<path d="M293.579 147.33L294.622 151.138L286.658 144.395C285.765 144.395 287.608 145.979 287.608 146.873C287.614 147.407 285.322 147.042 285.772 147.33C285.299 148.162 285.047 149.101 285.041 150.058C285.041 153.185 287.576 155.72 290.703 155.72C293.83 155.72 296.365 153.185 296.365 150.058C296.358 149.101 296.106 148.162 295.634 147.33C296.083 147.042 293.579 147.33 293.579 147.33Z" fill="black"/>
<path d="M290.703 154.102C292.936 154.102 294.747 152.291 294.747 150.058C294.747 147.824 292.936 146.013 290.703 146.013C288.469 146.013 286.658 147.824 286.658 150.058C286.658 152.291 288.469 154.102 290.703 154.102Z" fill="#CEA270"/>
<path d="M282.868 150.285H298.508V143.081H282.868V150.285Z" fill="#CEA270"/>
<path d="M287.418 164.105C282.476 162.142 279.538 162.402 274.148 164.105V162.494C279.985 160.155 282.912 160.081 287.418 162.494V164.105Z" fill="black" stroke="black" stroke-width="0.189579"/>
<g clip-path="url(#clip0_198_1675)">
<path d="M40.9236 80.713H64.1203V5.32861H40.9236V34.3229H29.3285V5.32861H6.13177V80.713H29.3285V51.7188H40.9236V80.713Z" fill="#62310C"/>
<path d="M105.086 80.713V51.7188H116.681V86.5105L139.878 80.713V5.32861H81.8896V80.713H105.086ZM116.681 34.3229H105.086V22.7278H116.681V34.3229Z" fill="#62310C"/>
<path d="M157.648 80.713H180.844V22.7278H192.439V86.5105L215.636 80.713V5.32861H157.648V80.713Z" fill="#62310C"/>
<path d="M291.394 86.5105V34.3229L268.197 40.1237V63.3171H256.602V22.7278H291.394V5.32861H233.405V80.713H268.197V86.5105H291.394Z" fill="#62310C"/>
<path d="M35.0974 75.6485H58.2941V0.264099H35.0974V29.2584H23.5023V0.264099H0.305573V75.6485H23.5023V46.6542H35.0974V75.6485Z" fill="#E68929"/>
<path d="M99.2603 75.6485V46.6542H110.855V81.446L134.052 75.6485V0.264099H76.0635V75.6485H99.2603ZM110.855 29.2584H99.2603V17.6633H110.855V29.2584Z" fill="#E68929"/>
<path d="M151.822 75.6485H175.018V17.6633H186.613V81.446L209.81 75.6485V0.264099H151.822V75.6485Z" fill="#E68929"/>
<path d="M285.568 81.446V29.2584L262.371 35.0592V58.2526H250.776V17.6633H285.568V0.264099H227.579V75.6485H262.371V81.446H285.568Z" fill="#E68929"/>
</g>
<g clip-path="url(#clip1_198_1675)">
<path d="M14.1022 173.588H35.0171V121.296H45.4772V178.817L66.3921 173.588V121.296H76.8496V173.588H97.7672V105.61H14.1022V173.588Z" fill="#61310C"/>
<path d="M134.698 173.588V147.442H145.158V178.817L166.073 173.588V105.61H113.783V173.588H134.698ZM145.158 131.756H134.698V121.296H145.158V131.756Z" fill="#61310C"/>
<path d="M182.1 173.588H203.015V121.296H213.475V178.817L234.39 173.588V105.61H182.1V173.588Z" fill="#61310C"/>
<path d="M8.84836 169.021H29.7633V116.729H40.2234V174.25L61.1383 169.021V116.729H71.5957V169.021H92.5133V101.042H8.84836V169.021Z" fill="#E68929"/>
<path d="M129.444 169.021V142.875H139.904V174.25L160.819 169.021V101.042H108.529V169.021H129.444ZM139.904 127.189H129.444V116.729H139.904V127.189Z" fill="#E68929"/>
<path d="M176.846 169.021H197.761V116.729H208.221V174.25L229.136 169.021V101.042H176.846V169.021Z" fill="#E68929"/>
</g>
<defs>
<clipPath id="clip0_198_1675">
<rect width="291.624" height="87.0423" fill="white"/>
</clipPath>
<clipPath id="clip1_198_1675">
<rect width="226.348" height="78.3125" fill="white" transform="translate(8.39062 100.688)"/>
</clipPath>
</defs>
</svg>
