<svg width="216" height="140" viewBox="0 0 216 140" fill="none" xmlns="http://www.w3.org/2000/svg">
<g clip-path="url(#clip0_16_501)">
<path d="M19.5581 135.598H36.7142V92.7077H45.2922V139.887L62.4483 135.598V92.7077H71.0264V135.598H88.1824V79.8406H19.5581V135.598Z" fill="#212847"/>
<path d="M118.473 135.598V114.153H127.051V139.887L144.207 135.598V79.8406H101.317V135.598H118.473ZM127.051 101.286H118.473V92.7077H127.051V101.286Z" fill="#212847"/>
<path d="M157.351 135.598H174.507V92.7077H183.085V139.887L200.241 135.598V79.8406H157.351V135.598Z" fill="#212847"/>
<path d="M15.2489 131.852H32.405V88.9618H40.983V136.141L58.1391 131.852V88.9618H66.7172V131.852H83.8732V76.0947H15.2489V131.852Z" fill="#E68929"/>
<path d="M114.164 131.852V110.407H122.742V136.141L139.898 131.852V76.0947H97.0077V131.852H114.164ZM122.742 97.5398H114.164V88.9618H122.742V97.5398Z" fill="#E68929"/>
<path d="M153.042 131.852H170.198V88.9618H178.776V136.141L195.932 131.852V76.0947H153.042V131.852Z" fill="#E68929"/>
<path d="M30.1638 59.5292H47.3199V3.77196H30.1638V25.2171H21.5858V3.77196H4.42972V59.5292H21.5858V38.0841H30.1638V59.5292Z" fill="#212847"/>
<path d="M77.6199 59.5292V38.0841H86.1979V63.8182L103.354 59.5292V3.77196H60.4638V59.5292H77.6199ZM86.1979 25.2171H77.6199V16.639H86.1979V25.2171Z" fill="#212847"/>
<path d="M116.498 59.5292H133.654V16.639H142.232V63.8182L159.388 59.5292V3.77196H116.498V59.5292Z" fill="#212847"/>
<path d="M215.422 63.8182V25.2171L198.266 29.5061V46.6622H189.688V16.639H215.422V3.77196H172.532V59.5292H198.266V63.8182H215.422Z" fill="#212847"/>
<path d="M25.8546 55.7833H43.0107V0.0260067H25.8546V21.4711H17.2766V0.0260067H0.120499V55.7833H17.2766V34.3382H25.8546V55.7833Z" fill="#E68929"/>
<path d="M73.3107 55.7833V34.3382H81.8887V60.0723L99.0448 55.7833V0.0260067H56.1546V55.7833H73.3107ZM81.8887 21.4711H73.3107V12.8931H81.8887V21.4711Z" fill="#E68929"/>
<path d="M112.189 55.7833H129.345V12.8931H137.923V60.0723L155.079 55.7833V0.0260067H112.189V55.7833Z" fill="#E68929"/>
<path d="M211.113 60.0723V21.4711L193.957 25.7601V42.9162H185.379V12.8931H211.113V0.0260067H168.223V55.7833H193.957V60.0723H211.113Z" fill="#E68929"/>
</g>
<defs>
<clipPath id="clip0_16_501">
<rect width="215.872" height="139.983" fill="white"/>
</clipPath>
</defs>
</svg>
