<svg width="293" height="405" viewBox="0 0 293 405" fill="none" xmlns="http://www.w3.org/2000/svg">
<path d="M231.045 262.637C231.352 267.766 230.507 272.897 228.571 277.656C227.725 279.986 226.578 282.195 225.157 284.227C223.257 287.051 220.891 289.533 218.16 291.565C202.497 301.908 184.27 307.698 165.509 308.291C159.536 308.803 153.136 309.059 146.053 309.059C138.971 309.059 132.571 308.803 126.597 308.291C107.837 307.698 89.6098 301.908 73.9467 291.565C71.2158 289.533 68.8497 287.051 66.9494 284.227C65.529 282.195 64.3814 279.986 63.536 277.656C61.6002 272.897 60.7547 267.766 61.0614 262.637C61.8018 243.683 65.3092 224.939 71.472 207C95.8328 213.173 120.933 215.931 146.053 215.192C171.173 215.931 196.274 213.173 220.635 207C226.798 224.939 230.305 243.683 231.045 262.637Z" fill="#9D27B0"/>
<path d="M220.635 207C212.756 209.245 204.729 210.933 196.613 212.052C201.747 228.457 204.716 245.463 205.445 262.637C205.752 267.766 204.907 272.897 202.971 277.656C202.125 279.986 200.978 282.195 199.557 284.227C197.657 287.051 195.291 289.533 192.56 291.565C176.897 301.908 158.67 307.698 139.909 308.291C137.776 308.47 135.506 308.581 133.253 308.7C137.307 308.914 141.505 309.059 146.053 309.059C153.136 309.059 159.536 308.803 165.509 308.291C184.27 307.698 202.497 301.908 218.16 291.565C220.891 289.533 223.257 287.051 225.157 284.227C226.578 282.195 227.725 279.986 228.571 277.656C230.507 272.897 231.352 267.766 231.045 262.637C230.305 243.683 226.798 224.939 220.635 207Z" fill="#6A1B9A"/>
<path d="M231.045 262.637C231.352 267.766 230.507 272.897 228.571 277.656C227.725 279.986 226.578 282.195 225.157 284.227C223.257 287.051 220.891 289.533 218.16 291.565C202.497 301.908 184.27 307.698 165.509 308.291C159.536 308.803 153.136 309.059 146.053 309.059C138.971 309.059 132.571 308.803 126.597 308.291C107.837 307.698 89.6098 301.908 73.9467 291.565C71.2158 289.533 68.8497 287.051 66.9494 284.227C65.529 282.195 64.3814 279.986 63.536 277.656C61.6002 272.897 60.7547 267.766 61.0614 262.637C61.8018 243.683 65.3092 224.939 71.472 207C95.8328 213.173 120.933 215.931 146.053 215.192C171.173 215.931 196.274 213.173 220.635 207C226.798 224.939 230.305 243.683 231.045 262.637Z" stroke="black" stroke-width="4"/>
<path d="M154.587 257.859H137.52C132.807 257.859 128.987 261.679 128.987 266.392C128.987 271.105 132.807 274.925 137.52 274.925H154.587C159.299 274.925 163.12 271.105 163.12 266.392C163.12 261.679 159.299 257.859 154.587 257.859Z" fill="black"/>
<path d="M50.2437 261.195C49.937 266.323 50.7826 271.455 52.7184 276.213C27.289 291.573 14.233 284.661 7.40637 274.08C0.449594 262.35 0.190161 247.822 6.7237 235.851C14.075 220.407 24.773 206.794 38.041 196C45.1405 200.137 52.74 203.349 60.6544 205.557C54.4915 223.497 50.9842 242.241 50.2437 261.195Z" fill="#C79F70" stroke="black" stroke-width="4"/>
<path d="M285.248 274.08C278.421 284.661 265.365 291.573 239.936 276.213C241.872 271.455 242.717 266.323 242.411 261.195C241.67 242.241 238.163 223.497 232 205.557C239.914 203.349 247.514 200.137 254.613 196C267.881 206.794 278.579 220.407 285.931 235.851C292.464 247.822 292.205 262.35 285.248 274.08Z" fill="#DFC49C"/>
<path d="M285.931 235.851C278.579 220.407 267.881 206.794 254.613 196C249.245 199.158 243.563 201.749 237.658 203.731C246.92 213.127 254.579 223.977 260.331 235.851C266.864 247.822 266.605 262.35 259.648 274.08C257.631 277.325 254.895 280.063 251.652 282.084C269.53 289.107 279.565 282.895 285.248 274.08C292.205 262.35 292.464 247.822 285.931 235.851Z" fill="#E3BF8A"/>
<path d="M285.248 274.08C278.421 284.661 265.365 291.573 239.936 276.213C241.872 271.455 242.717 266.323 242.411 261.195C241.67 242.241 238.163 223.497 232 205.557C239.914 203.349 247.514 200.137 254.613 196C267.881 206.794 278.579 220.407 285.931 235.851C292.464 247.822 292.205 262.35 285.248 274.08V274.08Z" stroke="black" stroke-width="4"/>
<path d="M120.611 316.064C119.672 351.989 113.272 373.749 106.872 386.549C102.355 395.999 92.8551 402.057 82.3814 402.165C81.5556 402.18 80.7296 402.151 79.9067 402.08C66.3518 400.321 56.0016 389.108 55.3307 375.456C54.1719 347.515 56.0604 319.532 60.9627 292C62.8631 294.825 65.2291 297.306 67.9601 299.339C83.6231 309.681 101.85 315.471 120.611 316.064Z" fill="#C79F70" stroke="black" stroke-width="4"/>
<path d="M237.28 375.456C236.609 389.108 226.259 400.321 212.704 402.08C211.881 402.151 211.055 402.18 210.229 402.165C199.756 402.057 190.256 395.999 185.739 386.549C179.339 373.749 172.939 351.989 172 316.064C190.76 315.471 208.988 309.681 224.651 299.339C227.382 297.306 229.748 294.825 231.648 292C236.55 319.532 238.439 347.515 237.28 375.456Z" fill="#E3BF8A"/>
<path d="M231.648 292C229.748 294.825 227.382 297.306 224.651 299.339C219.655 302.957 214.203 305.901 208.437 308.094C211.74 330.386 212.826 352.95 211.68 375.456C211.055 385.128 205.667 393.858 197.301 398.752C201.248 400.975 205.699 402.15 210.229 402.165C211.055 402.18 211.881 402.151 212.704 402.08C226.259 400.321 236.609 389.108 237.28 375.456C238.439 347.515 236.55 319.532 231.648 292Z" fill="#C79F70"/>
<path d="M237.28 375.456C236.609 389.108 226.259 400.321 212.704 402.08C211.881 402.151 211.055 402.18 210.229 402.165C199.756 402.057 190.256 395.999 185.739 386.549C179.339 373.749 172.939 351.989 172 316.064C190.76 315.471 208.988 309.681 224.651 299.339C227.382 297.306 229.748 294.825 231.648 292C236.55 319.532 238.439 347.515 237.28 375.456V375.456Z" stroke="black" stroke-width="4"/>
<path d="M274.293 104.4C274.293 139.557 274.293 170.619 243.488 189.051C236.388 193.188 228.789 196.399 220.874 198.608C196.514 204.782 171.413 207.539 146.293 206.8C121.173 207.539 96.0724 204.782 71.7116 198.608C63.7972 196.399 56.1978 193.188 49.0983 189.051C18.293 170.619 18.293 139.557 18.293 104.4C18.293 57.1254 58.3143 17.3601 112.672 5.58409C123.721 3.20845 134.991 2.00711 146.293 2.00009C152.309 1.99362 158.321 2.33552 164.298 3.02409C226.421 10.0214 274.293 52.6881 274.293 104.4Z" fill="#CEA270"/>
<path d="M164.298 3.02409C158.321 2.33552 152.309 1.99362 146.293 2.00009C142.24 2.00009 138.297 2.34996 134.346 2.64863C135.797 2.77663 137.265 2.85342 138.707 3.02409C200.821 10.0214 248.693 52.6881 248.693 104.4C248.693 139.557 248.693 170.619 217.888 189.051C210.788 193.188 203.189 196.399 195.274 198.608C175.103 203.887 154.343 206.582 133.493 206.629C137.623 206.732 141.864 206.8 146.293 206.8C171.413 207.539 196.514 204.782 220.874 198.608C228.789 196.399 236.388 193.188 243.488 189.051C274.293 170.619 274.293 139.557 274.293 104.4C274.293 52.6881 226.421 10.0214 164.298 3.02409Z" fill="#7B613B"/>
<path d="M274.293 104.4C274.293 139.557 274.293 170.619 243.488 189.051C236.388 193.188 228.789 196.399 220.874 198.608C196.514 204.782 171.413 207.539 146.293 206.8C121.173 207.539 96.0724 204.782 71.7116 198.608C63.7972 196.399 56.1978 193.188 49.0983 189.051C18.293 170.619 18.293 139.557 18.293 104.4C18.293 57.1254 58.3143 17.3601 112.672 5.58409C123.721 3.20845 134.991 2.00711 146.293 2.00009C152.309 1.99362 158.321 2.33552 164.298 3.02409C226.421 10.0214 274.293 52.6881 274.293 104.4Z" stroke="black" stroke-width="4"/>
<path d="M108.5 93.4129L114 113.5L71.9929 77.9334C67.28 77.9334 77 86.2872 77 91C77.035 93.8169 64.944 91.894 67.3166 93.4129C64.8228 97.8003 63.4949 102.754 63.4595 107.8C63.4595 124.295 76.8313 137.667 93.3262 137.667C109.821 137.667 123.193 124.295 123.193 107.8C123.158 102.754 121.83 97.8003 119.336 93.4129C121.708 91.894 108.5 93.4129 108.5 93.4129Z" fill="black"/>
<path d="M93.3263 129.133C105.108 129.133 114.66 119.582 114.66 107.8C114.66 96.0181 105.108 86.4668 93.3263 86.4668C81.5442 86.4668 71.9929 96.0181 71.9929 107.8C71.9929 119.582 81.5442 129.133 93.3263 129.133Z" fill="#CEA270"/>
<path d="M52 109H134.5V71H52V109Z" fill="#CEA270"/>
<path d="M213.5 93.4129L219 113.5L176.993 77.9334C172.28 77.9334 182 86.2872 182 91C182.035 93.8169 169.944 91.894 172.317 93.4129C169.823 97.8003 168.495 102.754 168.46 107.8C168.46 124.295 181.831 137.667 198.326 137.667C214.821 137.667 228.193 124.295 228.193 107.8C228.158 102.754 226.83 97.8003 224.336 93.4129C226.708 91.894 213.5 93.4129 213.5 93.4129Z" fill="black"/>
<path d="M198.326 129.133C210.108 129.133 219.66 119.582 219.66 107.8C219.66 96.0181 210.108 86.4668 198.326 86.4668C186.544 86.4668 176.993 96.0181 176.993 107.8C176.993 119.582 186.544 129.133 198.326 129.133Z" fill="#CEA270"/>
<path d="M157 109H239.5V71H157V109Z" fill="#CEA270"/>
<path d="M181 181.9C154.93 171.542 139.434 172.914 111 181.9V173.4C141.792 161.063 157.231 160.672 181 173.4V181.9Z" fill="black" stroke="black"/>
</svg>
