<svg width="134" height="184" viewBox="0 0 134 184" fill="none" xmlns="http://www.w3.org/2000/svg">
<path d="M105.573 119.587C105.713 121.921 105.328 124.256 104.448 126.421C104.063 127.481 103.541 128.486 102.894 129.41C102.03 130.696 100.953 131.825 99.7108 132.749C92.5842 137.455 84.291 140.09 75.7552 140.359C73.0374 140.592 70.1255 140.709 66.9029 140.709C63.6804 140.709 60.7684 140.592 58.0506 140.359C49.5149 140.09 41.2217 137.455 34.0951 132.749C32.8526 131.825 31.776 130.696 30.9114 129.41C30.2651 128.486 29.743 127.481 29.3583 126.421C28.4776 124.256 28.0928 121.921 28.2324 119.587C28.5693 110.964 30.1651 102.435 32.9691 94.273C44.053 97.0819 55.4736 98.3363 66.9029 98.0003C78.3323 98.3363 89.7528 97.0819 100.837 94.273C103.641 102.435 105.237 110.964 105.573 119.587Z" fill="#9D27B0"/>
<path d="M100.837 94.273C97.252 95.2945 93.5998 96.0625 89.9073 96.5715C92.2429 104.036 93.5938 111.773 93.9258 119.587C94.0653 121.921 93.6806 124.256 92.7998 126.421C92.4152 127.481 91.8931 128.486 91.2468 129.41C90.3821 130.696 89.3056 131.825 88.0631 132.749C80.9365 137.455 72.6433 140.09 64.1075 140.359C63.1369 140.441 62.1041 140.491 61.0791 140.546C62.9233 140.643 64.8336 140.709 66.903 140.709C70.1255 140.709 73.0375 140.592 75.7553 140.359C84.291 140.09 92.5843 137.455 99.7108 132.749C100.953 131.825 102.03 130.696 102.895 129.41C103.541 128.486 104.063 127.481 104.448 126.421C105.328 124.256 105.713 121.921 105.574 119.587C105.237 110.964 103.641 102.435 100.837 94.273Z" fill="#6A1B9A"/>
<path d="M105.573 119.587C105.713 121.921 105.328 124.256 104.448 126.421C104.063 127.481 103.541 128.486 102.894 129.41C102.03 130.696 100.953 131.825 99.7108 132.749C92.5842 137.455 84.291 140.09 75.7552 140.359C73.0374 140.592 70.1255 140.709 66.9029 140.709C63.6804 140.709 60.7684 140.592 58.0506 140.359C49.5149 140.09 41.2217 137.455 34.0951 132.749C32.8526 131.825 31.776 130.696 30.9114 129.41C30.2651 128.486 29.743 127.481 29.3583 126.421C28.4776 124.256 28.0928 121.921 28.2324 119.587C28.5693 110.964 30.1651 102.435 32.9691 94.273C44.053 97.0819 55.4736 98.3363 66.9029 98.0003C78.3323 98.3363 89.7528 97.0819 100.837 94.273C103.641 102.435 105.237 110.964 105.573 119.587Z" stroke="black" stroke-width="1.81996"/>
<path d="M70.7856 117.413H63.0204C60.8761 117.413 59.1378 119.152 59.1378 121.296C59.1378 123.44 60.8761 125.178 63.0204 125.178H70.7856C72.9299 125.178 74.6682 123.44 74.6682 121.296C74.6682 119.152 72.9299 117.413 70.7856 117.413Z" fill="black"/>
<path d="M23.3105 118.931C23.171 121.264 23.5557 123.599 24.4365 125.764C12.8664 132.753 6.92602 129.608 3.81995 124.794C0.654688 119.457 0.536648 112.846 3.50935 107.4C6.85411 100.373 11.7216 94.1793 17.7584 89.2681C20.9886 91.1503 24.4463 92.6117 28.0473 93.6166C25.2432 101.779 23.6474 110.307 23.3105 118.931Z" fill="#C79F70" stroke="black" stroke-width="1.81996"/>
<path d="M130.235 124.794C127.129 129.608 121.189 132.753 109.619 125.764C110.499 123.599 110.884 121.264 110.745 118.931C110.408 110.307 108.812 101.779 106.008 93.6166C109.609 92.6117 113.066 91.1503 116.297 89.2681C122.333 94.1793 127.201 100.373 130.546 107.4C133.518 112.846 133.4 119.457 130.235 124.794Z" fill="#DFC49C"/>
<path d="M130.546 107.4C127.201 100.373 122.334 94.1793 116.297 89.2681C113.854 90.7052 111.269 91.8841 108.582 92.7858C112.796 97.0608 116.281 101.998 118.898 107.4C121.871 112.846 121.753 119.457 118.587 124.794C117.67 126.27 116.425 127.516 114.949 128.436C123.083 131.631 127.649 128.804 130.235 124.794C133.4 119.457 133.519 112.846 130.546 107.4Z" fill="#E3BF8A"/>
<path d="M130.235 124.794C127.129 129.608 121.189 132.753 109.619 125.764C110.499 123.599 110.884 121.264 110.745 118.931C110.408 110.307 108.812 101.779 106.008 93.6166C109.609 92.6117 113.066 91.1503 116.297 89.2681C122.333 94.1793 127.201 100.373 130.546 107.4C133.518 112.846 133.4 119.457 130.235 124.794V124.794Z" stroke="black" stroke-width="1.81996"/>
<path d="M55.3268 143.896C54.8998 160.242 51.9878 170.142 49.0759 175.966C47.0206 180.266 42.6983 183.022 37.9329 183.071C37.5571 183.078 37.1813 183.065 36.8069 183.033C30.6396 182.232 25.9303 177.13 25.6251 170.919C25.0978 158.206 25.9571 145.474 28.1876 132.947C29.0522 134.232 30.1288 135.361 31.3713 136.286C38.4979 140.992 46.7911 143.626 55.3268 143.896Z" fill="#C79F70" stroke="black" stroke-width="1.81996"/>
<path d="M108.41 170.919C108.105 177.13 103.396 182.232 97.2283 183.033C96.8539 183.065 96.4781 183.078 96.1023 183.071C91.3369 183.022 87.0146 180.266 84.9593 175.966C82.0474 170.142 79.1355 160.242 78.7084 143.896C87.2441 143.626 95.5374 140.992 102.664 136.286C103.906 135.361 104.983 134.232 105.848 132.947C108.078 145.474 108.937 158.206 108.41 170.919Z" fill="#E3BF8A"/>
<path d="M105.848 132.947C104.983 134.232 103.906 135.361 102.664 136.286C100.391 137.933 97.9104 139.272 95.287 140.27C96.7896 150.412 97.2838 160.679 96.7624 170.919C96.4782 175.32 94.0266 179.292 90.2202 181.518C92.0161 182.53 94.0412 183.065 96.1023 183.071C96.4781 183.078 96.8539 183.065 97.2283 183.033C103.396 182.232 108.105 177.13 108.41 170.919C108.937 158.206 108.078 145.474 105.848 132.947Z" fill="#C79F70"/>
<path d="M108.41 170.919C108.105 177.13 103.396 182.232 97.2283 183.033C96.8539 183.065 96.4781 183.078 96.1023 183.071C91.3369 183.022 87.0146 180.266 84.9593 175.966C82.0474 170.142 79.1355 160.242 78.7084 143.896C87.2441 143.626 95.5374 140.992 102.664 136.286C103.906 135.361 104.983 134.232 105.848 132.947C108.078 145.474 108.937 158.206 108.41 170.919V170.919Z" stroke="black" stroke-width="1.81996"/>
<path d="M125.117 47.591C125.117 63.5873 125.117 77.7199 111.101 86.1063C107.871 87.9885 104.413 89.4499 100.812 90.4548C89.7285 93.2637 78.308 94.5181 66.8787 94.1821C55.4493 94.5181 44.0288 93.2637 32.9449 90.4548C29.3439 89.4499 25.8862 87.9885 22.656 86.1063C8.63989 77.7199 8.63989 63.5873 8.63989 47.591C8.63989 26.0815 26.8492 7.98869 51.5813 2.63073C56.6087 1.54983 61.7363 1.00323 66.8787 1.00004C69.6161 0.997097 72.3514 1.15266 75.0709 1.46595C103.336 4.64967 125.117 24.0626 125.117 47.591Z" fill="#C79F70"/>
<path d="M75.0709 1.46595C72.3515 1.15266 69.6161 0.997097 66.8787 1.00004C65.0345 1.00004 63.2407 1.15923 61.4431 1.29512C62.1031 1.35336 62.7709 1.3883 63.4271 1.46595C91.6884 4.64967 113.47 24.0626 113.47 47.591C113.47 63.5873 113.47 77.7199 99.4536 86.1063C96.2234 87.9885 92.7657 89.4499 89.1647 90.4548C79.9871 92.8565 70.5415 94.0829 61.0548 94.1044C62.934 94.151 64.8636 94.1821 66.8787 94.1821C78.308 94.5181 89.7286 93.2637 100.812 90.4548C104.413 89.4499 107.871 87.9885 111.101 86.1063C125.117 77.7199 125.117 63.5873 125.117 47.591C125.117 24.0626 103.336 4.64967 75.0709 1.46595Z" fill="#7B613B"/>
<path d="M125.117 47.591C125.117 63.5873 125.117 77.7199 111.101 86.1063C107.871 87.9885 104.413 89.4499 100.812 90.4548C89.7285 93.2637 78.308 94.5181 66.8787 94.1821C55.4493 94.5181 44.0288 93.2637 32.9449 90.4548C29.3439 89.4499 25.8862 87.9885 22.656 86.1063C8.63989 77.7199 8.63989 63.5873 8.63989 47.591C8.63989 26.0815 26.8492 7.98869 51.5813 2.63073C56.6087 1.54983 61.7363 1.00323 66.8787 1.00004C69.6161 0.997097 72.3514 1.15266 75.0709 1.46595C103.336 4.64967 125.117 24.0626 125.117 47.591Z" stroke="black" stroke-width="1.81996"/>
<path d="M41.3385 60.2398C46.6993 60.2398 51.045 55.894 51.045 50.5333C51.045 45.1726 46.6993 40.8268 41.3385 40.8268C35.9778 40.8268 31.6321 45.1726 31.6321 50.5333C31.6321 55.894 35.9778 60.2398 41.3385 60.2398Z" fill="#D6D4D7"/>
<path d="M91.8122 60.2398C97.1729 60.2398 101.519 55.894 101.519 50.5333C101.519 45.1726 97.1729 40.8268 91.8122 40.8268C86.4514 40.8268 82.1057 45.1726 82.1057 50.5333C82.1057 55.894 86.4514 60.2398 91.8122 60.2398Z" fill="white"/>
<path d="M27.7495 60.2397C27.7495 62.384 29.4878 64.1223 31.6321 64.1223H51.045C53.1893 64.1223 54.9276 62.384 54.9276 60.2397C54.9117 58.9581 54.2522 57.7704 53.1727 57.0793C54.3073 55.0831 54.9115 52.8294 54.9276 50.5333C54.9276 43.0282 48.8436 36.9442 41.3386 36.9442C33.8335 36.9442 27.7495 43.0282 27.7495 50.5333C27.7656 52.8294 28.3698 55.0831 29.5044 57.0793C28.425 57.7704 27.7654 58.9581 27.7495 60.2397ZM41.3386 44.7094C44.555 44.7094 47.1624 47.3168 47.1624 50.5333C47.1624 53.7497 44.555 56.3571 41.3386 56.3571C38.1221 56.3571 35.5147 53.7497 35.5147 50.5333C35.5147 47.3168 38.1221 44.7094 41.3386 44.7094Z" fill="black"/>
<path d="M78.2231 60.2397C78.2231 62.384 79.9614 64.1223 82.1057 64.1223H101.519C103.663 64.1223 105.401 62.384 105.401 60.2397C105.385 58.9581 104.726 57.7704 103.646 57.0793C104.781 55.0831 105.385 52.8294 105.401 50.5333C105.401 43.0282 99.3172 36.9442 91.8122 36.9442C84.3072 36.9442 78.2231 43.0282 78.2231 50.5333C78.2392 52.8294 78.8434 55.0831 79.9781 57.0793C78.8986 57.7704 78.2391 58.9581 78.2231 60.2397ZM91.8122 44.7094C95.0286 44.7094 97.6361 47.3168 97.6361 50.5333C97.6361 53.7497 95.0286 56.3571 91.8122 56.3571C88.5958 56.3571 85.9883 53.7497 85.9883 50.5333C85.9883 47.3168 88.5958 44.7094 91.8122 44.7094Z" fill="black"/>
<path d="M51.864 73.116C63.7258 77.829 70.7761 77.2043 83.7133 73.116V76.9834C69.7033 82.5966 62.6789 82.7745 51.864 76.9834V73.116Z" fill="black" stroke="black" stroke-width="0.45499"/>
</svg>
